<svg width="16" height="16" viewBox="0 0 16 16" fill="none" xmlns="http://www.w3.org/2000/svg">
<g id="Frame" clip-path="url(#clip0_4_2410)">
<g id="Group">
<path id="Shape" d="M15.68 8.18183C15.68 7.61456 15.6291 7.06911 15.5345 6.54547H8V9.64002H12.3055C12.12 10.64 11.5564 11.4873 10.7091 12.0546V14.0618H13.2945C14.8073 12.6691 15.68 10.6182 15.68 8.18183Z" fill="#4285F4"/>
<path id="Shape_2" d="M8.00016 16C10.1602 16 11.9711 15.2837 13.2947 14.0618L10.7093 12.0546C9.99289 12.5346 9.07653 12.8182 8.00016 12.8182C5.91653 12.8182 4.15289 11.4109 3.5238 9.52002H0.851074V11.5927C2.16744 14.2073 4.87289 16 8.00016 16Z" fill="#00A3FF"/>
<path id="Shape_3" d="M3.52364 9.52002C3.36364 9.04002 3.27273 8.52729 3.27273 8.00001C3.27273 7.47274 3.36364 6.96001 3.52364 6.48001V4.40729H0.850909C0.309091 5.48729 0 6.70911 0 8.00001C0 9.29092 0.309091 10.5127 0.850909 11.5927L3.52364 9.52002Z" fill="#FBBC05"/>
<path id="Shape_4" d="M8.00016 3.18182C9.17471 3.18182 10.2293 3.58545 11.0583 4.37818L13.3529 2.08364C11.9674 0.792727 10.1565 0 8.00016 0C4.87289 0 2.16744 1.79273 0.851074 4.40727L3.5238 6.48C4.15289 4.58909 5.91653 3.18182 8.00016 3.18182Z" fill="#EA4335"/>
</g>
</g>
<defs>
<clipPath id="clip0_4_2410">
<rect width="16" height="16" fill="white"/>
</clipPath>
</defs>
</svg>
