<svg width="47" height="44" viewBox="0 0 47 44" fill="none" xmlns="http://www.w3.org/2000/svg">
<g opacity="0.8">
<path fill-rule="evenodd" clip-rule="evenodd" d="M15.909 1.91304H39.3709C43.2582 1.91304 46.4095 5.28551 46.4095 9.44565V34.5543C46.4095 38.7145 43.2582 42.087 39.3709 42.087H15.909C12.0216 42.087 8.87036 38.7145 8.87036 34.5543L8.87036 9.44565C8.87036 5.28551 12.0216 1.91304 15.909 1.91304Z" fill="#0D6EFD" fill-opacity="0.2"/>
<path fill-rule="evenodd" clip-rule="evenodd" d="M9.36412 1.91304H34.0609C38.1528 1.91304 41.47 5.28551 41.47 9.44565V34.5543C41.47 38.7145 38.1528 42.087 34.0609 42.087H9.36412C5.27222 42.087 1.95508 38.7145 1.95508 34.5543L1.95508 9.44565C1.95508 5.28551 5.27222 1.91304 9.36412 1.91304Z" fill="#00A3FF"/>
<g opacity="0.7">
<path opacity="0.3" fill-rule="evenodd" clip-rule="evenodd" d="M16.7587 18.3563H15.746C15.6938 18.3563 15.6165 18.4266 15.6135 18.473L14.8674 30.1477L28.8057 30.1452L28.0523 18.473C28.0494 18.4283 27.97 18.3563 27.9197 18.3563H26.907V20.3215C26.907 20.8642 26.4526 21.3041 25.8922 21.3041C25.3317 21.3041 24.8773 20.8642 24.8773 20.3215V18.3563H18.7884V20.3215C18.7884 20.8642 18.334 21.3041 17.7735 21.3041C17.2131 21.3041 16.7587 20.8642 16.7587 20.3215V18.3563Z" fill="white"/>
<path fill-rule="evenodd" clip-rule="evenodd" d="M21.8328 11.4783C24.6337 11.4783 26.9069 13.6796 26.9069 16.389L27.9196 16.3914C29.0417 16.3914 30.0081 17.2703 30.0779 18.3508L30.8397 30.1539C30.9096 31.2361 30.0604 32.1133 28.9415 32.1133H14.724C13.6058 32.1133 12.756 31.2344 12.8258 30.1539L13.5877 18.3508C13.6575 17.2686 14.6219 16.3914 15.746 16.3914H16.7586C16.7586 13.6781 19.0337 11.4783 21.8328 11.4783ZM24.8772 16.3915C24.8772 14.765 23.5127 13.4436 21.8328 13.4436C20.154 13.4436 18.7883 14.7642 18.7883 16.3892L24.8772 16.3915ZM16.7586 18.3566H15.746C15.6938 18.3566 15.6164 18.4269 15.6134 18.4733L14.8673 30.148L28.8056 30.1455L28.0522 18.4733C28.0493 18.4286 27.9699 18.3566 27.9196 18.3566H26.9069V20.3218C26.9069 20.8645 26.4526 21.3044 25.8921 21.3044C25.3316 21.3044 24.8772 20.8645 24.8772 20.3218V18.3566H18.7883V20.3218C18.7883 20.8645 18.3339 21.3044 17.7734 21.3044C17.213 21.3044 16.7586 20.8645 16.7586 20.3218V18.3566Z" fill="white"/>
</g>
</g>
</svg>
