<svg width="27" height="26" viewBox="0 0 27 26" fill="none" xmlns="http://www.w3.org/2000/svg">
<g id="cart 1" clip-path="url(#clip0_52_99)">
<g id="Group">
<g id="Group_2">
<g id="Group_3">
<path id="Vector" d="M8.0749 19.6446C6.31114 19.6446 4.87622 21.1019 4.87622 22.8932C4.87622 24.6846 6.31114 26.1419 8.0749 26.1419C9.83866 26.1419 11.2736 24.6846 11.2736 22.8932C11.2736 21.1019 9.83861 19.6446 8.0749 19.6446ZM8.0749 24.1927C7.36927 24.1927 6.79545 23.6099 6.79545 22.8932C6.79545 22.1766 7.36927 21.5938 8.0749 21.5938C8.78019 21.5938 9.35435 22.1766 9.35435 22.8932C9.35435 23.6098 8.78054 24.1927 8.0749 24.1927Z" fill="#00A3FF"/>
<path id="Vector_2" d="M17.5429 19.6446C15.7792 19.6446 14.3442 21.1019 14.3442 22.8932C14.3442 24.6846 15.7792 26.1419 17.5429 26.1419C19.3067 26.1419 20.7416 24.6846 20.7416 22.8932C20.7416 21.1019 19.3067 19.6446 17.5429 19.6446ZM17.5429 24.1927C16.8373 24.1927 16.2635 23.6099 16.2635 22.8932C16.2635 22.1766 16.8373 21.5938 17.5429 21.5938C18.2486 21.5938 18.8224 22.1766 18.8224 22.8932C18.8224 23.6098 18.2486 24.1927 17.5429 24.1927Z" fill="#00A3FF"/>
<path id="Vector_3" d="M23.092 6.75783C22.9097 6.52521 22.6333 6.38978 22.341 6.38978H5.53841L4.66612 1.91248C4.58968 1.52036 4.28518 1.21532 3.8978 1.14321L0.0593951 0.428509C-0.462915 0.330716 -0.96192 0.681935 -1.05756 1.21145C-1.15321 1.74097 -0.808087 2.24873 -0.286668 2.34586L2.91008 2.94101L5.72618 17.3972C5.8151 17.8536 6.2095 18.1827 6.66754 18.1827H20.1019C20.5488 18.1827 20.9362 17.8698 21.0369 17.427L23.276 7.58364C23.3418 7.29418 23.274 6.9901 23.092 6.75783ZM19.3387 16.2335H7.45566L5.91807 8.3393H21.1341L19.3387 16.2335Z" fill="#00A3FF"/>
</g>
</g>
</g>
</g>
<defs>
<clipPath id="clip0_52_99">
<rect width="26.9173" height="27.3378" fill="white" transform="translate(0 0.412167)"/>
</clipPath>
</defs>
</svg>
