<svg width="21" height="20" viewBox="0 0 21 20" fill="none" xmlns="http://www.w3.org/2000/svg">
<g id="delivery-truck 1" clip-path="url(#clip0_52_79)">
<g id="Group">
<g id="Group_2">
<path id="Vector" d="M20.803 10.8362L18.8586 7.07066C18.7561 6.87214 18.5465 6.74675 18.3173 6.74675H13.7371V5.44987C13.7371 5.12628 13.4661 4.86394 13.1319 4.86394H9.81011C9.51153 2.56702 7.48156 0.784523 5.02973 0.784523C2.37291 0.784523 0.211426 2.87737 0.211426 5.44987V16.7467C0.211426 17.0703 0.482368 17.3326 0.816568 17.3326H3.52547C3.7979 18.4119 4.80458 19.2155 6.00195 19.2155C7.19937 19.2155 8.20608 18.4119 8.47851 17.3326H12.5999C12.8724 18.4119 13.879 19.2155 15.0764 19.2155C16.2738 19.2155 17.2805 18.4119 17.5529 17.3326H20.2618C20.596 17.3326 20.8669 17.0703 20.8669 16.7467V11.0983C20.8669 11.0073 20.8451 10.9176 20.803 10.8362ZM5.02973 1.9564C7.01915 1.9564 8.63775 3.52359 8.63775 5.44987C8.63775 7.37616 7.01919 8.94335 5.02973 8.94335C3.04026 8.94335 1.42171 7.37616 1.42171 5.44987C1.42171 3.52359 3.04026 1.9564 5.02973 1.9564ZM6.00195 18.0436C5.26343 18.0436 4.66261 17.4618 4.66261 16.7467C4.66261 16.0316 5.26348 15.4499 6.00195 15.4499C6.74055 15.4499 7.34137 16.0316 7.34137 16.7467C7.34137 17.4618 6.74055 18.0436 6.00195 18.0436ZM12.5268 16.1607H8.47851C8.20608 15.0815 7.19937 14.278 6.00195 14.278C4.80458 14.278 3.7979 15.0815 3.52547 16.1607H1.42171V8.53827C2.30514 9.50476 3.5951 10.1152 5.02973 10.1152C7.48156 10.1152 9.51153 8.33273 9.81011 6.03577H12.5268V16.1607V16.1607ZM13.7371 7.91862H17.9433L19.2826 10.5123H13.7371V7.91862ZM15.0764 18.0436C14.3379 18.0436 13.7371 17.4618 13.7371 16.7467C13.7371 16.0316 14.3379 15.4499 15.0764 15.4499C15.8149 15.4499 16.4158 16.0316 16.4158 16.7467C16.4158 17.4618 15.8149 18.0436 15.0764 18.0436ZM19.6567 16.1608H17.5529V16.1608C17.2805 15.0815 16.2738 14.278 15.0764 14.278C14.5854 14.278 14.1266 14.4134 13.7371 14.6473V11.6842H19.6567V16.1608Z" fill="#00A3FF"/>
</g>
</g>
<g id="Group_3">
<g id="Group_4">
<path id="Vector_2" d="M6.43416 4.86394H5.63484V4.09003C5.63484 3.76644 5.3639 3.5041 5.0297 3.5041C4.6955 3.5041 4.42456 3.76644 4.42456 4.09003V5.44984C4.4246 5.77347 4.6955 6.03581 5.02974 6.03581H6.43416C6.76836 6.03581 7.0393 5.77347 7.0393 5.44988C7.0393 5.12628 6.76836 4.86394 6.43416 4.86394Z" fill="#00A3FF"/>
</g>
</g>
</g>
<defs>
<clipPath id="clip0_52_79">
<rect width="20.6555" height="20" fill="white" transform="translate(0.211426)"/>
</clipPath>
</defs>
</svg>
