<svg width="33" height="33" viewBox="0 0 33 33" fill="none" xmlns="http://www.w3.org/2000/svg">
<g id="icons8:shopping-cart">
<path id="Vector" d="M5.5 7.50004C5.23478 7.50004 4.98043 7.6054 4.79289 7.79294C4.60536 7.98047 4.5 8.23483 4.5 8.50004C4.5 8.76526 4.60536 9.01961 4.79289 9.20715C4.98043 9.39469 5.23478 9.50004 5.5 9.50004H7.72L10.344 20C10.567 20.89 11.364 21.5 12.281 21.5H23.751C24.654 21.5 25.421 20.9 25.658 20.03L28.25 10.5H11.5L12 12.5H25.656L23.75 19.5H12.28L9.657 9.00004C9.54865 8.56927 9.29888 8.18732 8.94768 7.91536C8.59648 7.64339 8.16418 7.49715 7.72 7.50004H5.5ZM22.5 21.5C20.855 21.5 19.5 22.855 19.5 24.5C19.5 26.145 20.855 27.5 22.5 27.5C24.145 27.5 25.5 26.145 25.5 24.5C25.5 22.855 24.145 21.5 22.5 21.5ZM13.5 21.5C11.855 21.5 10.5 22.855 10.5 24.5C10.5 26.145 11.855 27.5 13.5 27.5C15.145 27.5 16.5 26.145 16.5 24.5C16.5 22.855 15.145 21.5 13.5 21.5ZM13.5 23.5C14.064 23.5 14.5 23.936 14.5 24.5C14.5 25.064 14.064 25.5 13.5 25.5C12.936 25.5 12.5 25.064 12.5 24.5C12.5 23.936 12.936 23.5 13.5 23.5ZM22.5 23.5C23.064 23.5 23.5 23.936 23.5 24.5C23.5 25.064 23.064 25.5 22.5 25.5C21.936 25.5 21.5 25.064 21.5 24.5C21.5 23.936 21.936 23.5 22.5 23.5Z" fill="white"/>
</g>
</svg>
