<svg width="23" height="22" viewBox="0 0 23 22" fill="none" xmlns="http://www.w3.org/2000/svg">
<g id="loupe 1" clip-path="url(#clip0_52_109)">
<g id="Group">
<g id="Group_2">
<path id="Vector" d="M22.5653 20.436L16.104 14.1798C17.3556 12.6829 18.1091 10.7808 18.1091 8.70921C18.1091 3.90775 14.0743 0.000944138 9.11546 0.000944138C4.15664 0.000944138 0.121826 3.90771 0.121826 8.70916C0.121826 13.5106 4.15668 17.4174 9.11551 17.4174C11.255 17.4174 13.2195 16.6878 14.7654 15.4759L21.2267 21.7321C21.4113 21.9109 21.6536 22.0007 21.896 22.0007C22.1384 22.0007 22.3807 21.9109 22.5653 21.7321C22.9355 21.3737 22.9355 20.7944 22.5653 20.436ZM9.11551 15.5841C5.19994 15.5841 2.01524 12.5005 2.01524 8.70916C2.01524 4.91785 5.19994 1.83423 9.11551 1.83423C13.0311 1.83423 16.2158 4.91785 16.2158 8.70916C16.2158 12.5005 13.031 15.5841 9.11551 15.5841Z" fill="#8B8B8B"/>
</g>
</g>
</g>
<defs>
<clipPath id="clip0_52_109">
<rect width="22.7211" height="22" fill="white" transform="translate(0.121826)"/>
</clipPath>
</defs>
</svg>
