<svg width="18" height="16" viewBox="0 0 18 16" fill="none" xmlns="http://www.w3.org/2000/svg">
<g id="reloj-de-pared 1" clip-path="url(#clip0_52_89)">
<g id="Group">
<g id="Group_2">
<path id="Vector" d="M8.85596 0C4.30029 0 0.59375 3.58872 0.59375 8C0.59375 12.4113 4.30029 16 8.85596 16C13.4118 16 17.1182 12.4113 17.1182 8C17.1182 3.58872 13.4116 0 8.85596 0ZM8.85596 14.8321C4.9653 14.8321 1.7999 11.7672 1.7999 8C1.7999 4.23281 4.9653 1.16788 8.85596 1.16788C12.7466 1.16788 15.912 4.23278 15.912 7.99981C15.912 11.7672 12.7466 14.8321 8.85596 14.8321Z" fill="#00A3FF"/>
</g>
</g>
<g id="Group_3">
<g id="Group_4">
<path id="Vector_2" d="M11.6703 7.99999H9.05698V4.49633C9.05698 4.1738 8.78701 3.91239 8.45391 3.91239C8.1208 3.91239 7.85083 4.1738 7.85083 4.49633V8.58392C7.85083 8.90645 8.1208 9.16786 8.45391 9.16786H11.6703C12.0034 9.16786 12.2734 8.90645 12.2734 8.58392C12.2734 8.26139 12.0034 7.99999 11.6703 7.99999Z" fill="#00A3FF"/>
</g>
</g>
</g>
<defs>
<clipPath id="clip0_52_89">
<rect width="16.5244" height="16" fill="white" transform="translate(0.59375)"/>
</clipPath>
</defs>
</svg>
