<svg width="20" height="18" viewBox="0 0 20 18" fill="none" xmlns="http://www.w3.org/2000/svg">
<g id="telefono 1" clip-path="url(#clip0_52_74)">
<g id="Group">
<g id="Group_2">
<path id="Vector" d="M16.6116 17.1239L19.0386 14.7658L13.9893 9.86872L11.9644 11.7672C11.3811 11.449 10.2637 10.7587 9.04866 9.5822C7.83342 8.40556 7.11234 7.31571 6.77852 6.74552L8.73841 4.82331L3.78939 0.00266201L1.3512 2.34786C0.425371 3.24431 0.185444 4.60833 0.754107 5.74205C1.62188 7.47209 3.22308 10.083 5.92301 12.6973C8.62288 15.3115 11.3194 16.8618 13.1062 17.7021C13.5295 17.9012 13.9839 17.9979 14.4354 17.9979C15.2326 17.9979 16.0205 17.6962 16.6116 17.1239ZM13.7403 16.4381C12.0536 15.645 9.50637 14.1797 6.94917 11.7037C4.39185 9.22754 2.87866 6.76116 2.05951 5.12812C1.76087 4.53275 1.8886 3.81468 2.37568 3.34306L3.78296 1.98948L6.69566 4.8268L5.02605 6.46434L5.22756 6.90245C5.26031 6.97364 6.05216 8.6681 8.02248 10.5759C9.9941 12.4849 11.7293 13.2357 11.8022 13.2667L12.2486 13.4567L13.9721 11.8409L16.989 14.7668L15.5849 16.131C15.0961 16.6037 14.3548 16.7272 13.7403 16.4381Z" fill="#00A3FF"/>
</g>
</g>
</g>
<defs>
<clipPath id="clip0_52_74">
<rect width="18" height="18.59" fill="white" transform="translate(19.0386) rotate(90)"/>
</clipPath>
</defs>
</svg>
