<svg width="25" height="23" viewBox="0 0 25 23" fill="none" xmlns="http://www.w3.org/2000/svg">
<g id="usuario (1) 1">
<path id="Vector" d="M13.5667 12.095H9.79931C6.68329 12.095 3.60813 13.5465 1.55176 16.6587V21.6806H21.8142V16.6587C19.7608 13.551 16.6865 12.095 13.5667 12.095ZM20.4634 20.3177H2.90259V17.0757C4.47996 14.8064 7.04298 13.4579 9.79931 13.4579H13.5667C16.323 13.4579 18.886 14.8064 20.4634 17.0757V20.3177Z" fill="#00A3FF"/>
<path id="Vector (Stroke)" d="M1.31305 16.5585L1.29648 16.5836V16.6137V21.8329V21.9329H1.39648H21.9693H22.0693V21.8329V16.6137V16.5836L22.0527 16.5585L22.0277 16.5207C19.9266 13.3409 16.7716 11.8427 13.5666 11.8427H9.79921C6.59819 11.8427 3.44216 13.3363 1.33803 16.5207L1.31305 16.5585ZM1.65166 21.5806V16.6889C3.689 13.6226 6.72434 12.195 9.79921 12.195H13.5666C16.6452 12.195 19.6797 13.627 21.7141 16.6889V21.5806H1.65166Z" fill="#00A3FF" stroke="#00A3FF" stroke-width="0.2"/>
<path id="Ellipse 4 (Stroke)" fill-rule="evenodd" clip-rule="evenodd" d="M11.6379 8.84729C13.5049 8.84729 15.0775 7.32528 15.0775 5.37557C15.0775 3.42585 13.5049 1.90385 11.6379 1.90385C9.77084 1.90385 8.1982 3.42585 8.1982 5.37557C8.1982 7.32528 9.77084 8.84729 11.6379 8.84729ZM11.6379 10.7511C14.6088 10.7511 17.0172 8.34441 17.0172 5.37557C17.0172 2.40672 14.6088 0 11.6379 0C8.66694 0 6.25854 2.40672 6.25854 5.37557C6.25854 8.34441 8.66694 10.7511 11.6379 10.7511Z" fill="#00A3FF"/>
</g>
</svg>
