<svg width="18" height="17" viewBox="0 0 18 17" fill="none" xmlns="http://www.w3.org/2000/svg">
<g id="whatsapp (4) 1" clip-path="url(#clip0_52_87)">
<path id="Vector" fill-rule="evenodd" clip-rule="evenodd" d="M14.6878 2.83907C13.1479 1.34629 11.1 0.523832 8.9182 0.522957C4.42246 0.522957 0.763583 4.06561 0.761775 8.41982C0.761172 9.81172 1.1367 11.1705 1.8505 12.3681L0.693359 16.4605L5.01721 15.3622C6.2086 15.9915 7.54989 16.3231 8.91489 16.3235H8.9183C13.4135 16.3235 17.0728 12.7806 17.0745 8.42614C17.0754 6.31586 16.2278 4.33175 14.6878 2.83907ZM8.9182 14.9898H8.91539C7.69898 14.9893 6.50597 14.6727 5.46497 14.0748L5.21753 13.9325L2.65169 14.5842L3.33655 12.162L3.17531 11.9136C2.49668 10.8685 2.13833 9.66056 2.13893 8.42031C2.14033 4.8012 5.18156 1.85679 8.92091 1.85679C10.7317 1.85737 12.4338 2.54102 13.7137 3.78176C14.9936 5.0225 15.6981 6.67169 15.6975 8.42566C15.6959 12.0451 12.6548 14.9898 8.9182 14.9898V14.9898ZM12.6368 10.0736C12.433 9.97476 11.431 9.49753 11.2441 9.43157C11.0575 9.36572 10.9214 9.33294 10.7857 9.53041C10.6498 9.72787 10.2593 10.1724 10.1403 10.304C10.0214 10.4357 9.90264 10.4523 9.6988 10.3534C9.49496 10.2547 8.83833 10.0463 8.05984 9.37399C7.45405 8.85075 7.04506 8.20455 6.92611 8.00708C6.80736 7.80942 6.92511 7.71292 7.01552 7.60437C7.23614 7.3391 7.45706 7.06099 7.52497 6.92938C7.59299 6.79767 7.55893 6.6824 7.50789 6.58366C7.45706 6.48493 7.04948 5.51364 6.8797 5.11841C6.71413 4.73379 6.54626 4.78573 6.42108 4.7797C6.30233 4.77396 6.16641 4.77279 6.03048 4.77279C5.89465 4.77279 5.67383 4.82211 5.48697 5.01977C5.30021 5.21734 4.77378 5.69467 4.77378 6.66596C4.77378 7.63724 5.50405 8.57556 5.60592 8.70727C5.70779 8.83898 7.04305 10.8321 9.08738 11.6868C9.57362 11.8903 9.95318 12.0116 10.2492 12.1025C10.7375 12.2527 11.1816 12.2315 11.5329 12.1808C11.9245 12.124 12.7385 11.7033 12.9085 11.2424C13.0783 10.7815 13.0783 10.3864 13.0273 10.304C12.9764 10.2217 12.8405 10.1724 12.6368 10.0736V10.0736Z" fill="#00A3FF"/>
</g>
<defs>
<clipPath id="clip0_52_87">
<rect width="17.5573" height="17" fill="white" transform="translate(0.0869141)"/>
</clipPath>
</defs>
</svg>
