<svg width="20" height="14" viewBox="0 0 20 14" fill="none" xmlns="http://www.w3.org/2000/svg">
<path d="M18.2422 0.148926H1.75781C0.788555 0.148926 0 0.93748 0 1.90674V12.0935C0 13.0628 0.788555 13.8513 1.75781 13.8513H18.2422C19.2114 13.8513 20 13.0628 20 12.0935V1.90674C20 0.93748 19.2114 0.148926 18.2422 0.148926ZM18.0128 1.3208L17.7782 1.51615L10.6974 7.41228C10.2933 7.74877 9.70664 7.74877 9.30258 7.41228L2.22184 1.51615L1.98723 1.3208H18.0128ZM1.17188 2.16682L6.94109 6.97084L1.17188 10.8104V2.16682ZM18.2422 12.6795H1.75781C1.47469 12.6795 1.23789 12.4776 1.18363 12.2103L7.8807 7.75322L8.55273 8.31283C8.97203 8.66197 9.48606 8.83654 10 8.83654C10.514 8.83654 11.028 8.66197 11.4473 8.31283L12.1194 7.75322L18.8164 12.2103C18.7621 12.4776 18.5253 12.6795 18.2422 12.6795ZM18.8281 10.8104L13.0589 6.97088L18.8281 2.16682V10.8104Z" fill="#00A3FF"/>
</svg>
