<svg width="19" height="19" viewBox="0 0 19 19" fill="none" xmlns="http://www.w3.org/2000/svg">
<g clip-path="url(#clip0_4_2121)">
<path d="M9.5 0C4.26183 0 0 4.2616 0 9.5C0 14.7384 4.26183 19 9.5 19C14.7384 19 19 14.7384 19 9.5C19 4.2616 14.7382 0 9.5 0ZM9.5 17.6131C5.02646 17.6131 1.38685 13.9735 1.38685 9.5C1.38685 5.02646 5.02646 1.38685 9.5 1.38685C13.9735 1.38685 17.6131 5.02643 17.6131 9.49978C17.6131 13.9735 13.9735 17.6131 9.5 17.6131Z" fill="#00A3FF"/>
<path d="M12.7359 9.50001H9.73109V5.33942C9.73109 4.95642 9.42067 4.646 9.03766 4.646C8.65466 4.646 8.34424 4.95642 8.34424 5.33942V10.1934C8.34424 10.5764 8.65466 10.8869 9.03766 10.8869H12.7359C13.119 10.8869 13.4294 10.5764 13.4294 10.1934C13.4294 9.81043 13.119 9.50001 12.7359 9.50001Z" fill="#00A3FF"/>
</g>
<defs>
<clipPath id="clip0_4_2121">
<rect width="19" height="19" fill="white"/>
</clipPath>
</defs>
</svg>
