<svg width="18" height="18" viewBox="0 0 18 18" fill="none" xmlns="http://www.w3.org/2000/svg">
<path d="M15.6501 17.1239L18 14.7659L13.111 9.86874L11.1503 11.7672C10.5855 11.4491 9.50359 10.7587 8.32713 9.58222C7.15045 8.40558 6.45225 7.31574 6.12902 6.74554L8.02672 4.82334L3.23476 0.0026849L0.873947 2.34788C-0.0225011 3.24433 -0.254812 4.60836 0.295803 5.74207C1.13604 7.47211 2.68642 10.0831 5.30067 12.6973C7.91485 15.3115 10.5258 16.8618 12.2559 17.7021C12.6658 17.9012 13.1058 17.9979 13.5429 17.9979C14.3148 17.9979 15.0777 17.6963 15.6501 17.1239ZM12.8698 16.4382C11.2367 15.645 8.77031 14.1797 6.29426 11.7037C3.8181 9.22757 2.35293 6.76118 1.55977 5.12814C1.27061 4.53277 1.39429 3.81471 1.86591 3.34309L3.22853 1.9895L6.0488 4.82682L4.43217 6.46436L4.62729 6.90247C4.659 6.97367 5.42572 8.66812 7.33351 10.5759C9.24256 12.485 10.9227 13.2358 10.9933 13.2668L11.4255 13.4567L13.0943 11.8409L16.0154 14.7668L14.656 16.131C14.1826 16.6037 13.4649 16.7272 12.8698 16.4382Z" fill="#00A3FF"/>
</svg>
