<svg width="22" height="23" viewBox="0 0 22 23" fill="none" xmlns="http://www.w3.org/2000/svg">
<g id="instagram 1" clip-path="url(#clip0_4_2083)">
<g id="Group">
<g id="Group_2">
<path id="Vector" d="M15.125 0.0510254H6.875C3.07863 0.0510254 0 3.12965 0 6.92603V15.176C0 18.9724 3.07863 22.051 6.875 22.051H15.125C18.9214 22.051 22 18.9724 22 15.176V6.92603C22 3.12965 18.9214 0.0510254 15.125 0.0510254ZM19.9375 15.176C19.9375 17.8298 17.7787 19.9885 15.125 19.9885H6.875C4.22125 19.9885 2.0625 17.8298 2.0625 15.176V6.92603C2.0625 4.27228 4.22125 2.11353 6.875 2.11353H15.125C17.7787 2.11353 19.9375 4.27228 19.9375 6.92603V15.176Z" fill="#00A3FF"/>
</g>
</g>
<g id="Group_3">
<g id="Group_4">
<path id="Vector_2" d="M11 5.55103C7.96263 5.55103 5.5 8.01365 5.5 11.051C5.5 14.0884 7.96263 16.551 11 16.551C14.0374 16.551 16.5 14.0884 16.5 11.051C16.5 8.01365 14.0374 5.55103 11 5.55103ZM11 14.4885C9.10525 14.4885 7.5625 12.9458 7.5625 11.051C7.5625 9.1549 9.10525 7.61353 11 7.61353C12.8948 7.61353 14.4375 9.1549 14.4375 11.051C14.4375 12.9458 12.8948 14.4885 11 14.4885Z" fill="#00A3FF"/>
</g>
</g>
<g id="Group_5">
<g id="Group_6">
<path id="Vector_3" d="M16.9126 5.87151C17.3173 5.87151 17.6454 5.54339 17.6454 5.13863C17.6454 4.73388 17.3173 4.40576 16.9126 4.40576C16.5078 4.40576 16.1797 4.73388 16.1797 5.13863C16.1797 5.54339 16.5078 5.87151 16.9126 5.87151Z" fill="#00A3FF"/>
</g>
</g>
</g>
<defs>
<clipPath id="clip0_4_2083">
<rect width="22" height="22" fill="white" transform="translate(0 0.0510254)"/>
</clipPath>
</defs>
</svg>
