<svg width="22" height="23" viewBox="0 0 22 23" fill="none" xmlns="http://www.w3.org/2000/svg">
<g id="logotipo-de-youtube 1" clip-path="url(#clip0_4_2093)">
<g id="Group">
<g id="Group_2">
<path id="Vector" d="M13.2957 2.15039V6.98712C13.2957 7.40483 13.3283 7.71159 13.3938 7.9079C13.5001 8.21103 13.7416 8.36215 14.118 8.36215C14.527 8.36215 14.9486 8.10904 15.3823 7.60115V8.27632H16.4996V2.15039H15.3826V6.82758C15.1369 7.18004 14.9039 7.35554 14.6827 7.35554C14.5355 7.35554 14.4494 7.26583 14.425 7.08551C14.4168 7.06932 14.4127 6.92574 14.4127 6.65595V2.15039H13.2957Z" fill="#00A3FF"/>
<path id="Vector_2" d="M10.7423 8.36241C11.307 8.36241 11.7407 8.15377 12.0436 7.73653C12.2728 7.43385 12.3874 6.95064 12.3874 6.28779V4.13943C12.3874 3.4848 12.2728 3.00618 12.0436 2.70325C11.7407 2.28554 11.3071 2.0769 10.7423 2.0769C10.1938 2.0769 9.76424 2.28554 9.45314 2.70325C9.22396 3.00642 9.10938 3.48504 9.10938 4.13943V6.28779C9.10938 6.9429 9.22396 7.42591 9.45314 7.73653C9.76401 8.15377 10.1938 8.36241 10.7423 8.36241ZM10.2143 3.91827C10.2143 3.35378 10.3904 3.07147 10.7423 3.07147C11.094 3.07147 11.2703 3.35382 11.2703 3.91827V6.49643C11.2703 7.06962 11.094 7.35583 10.7423 7.35583C10.3903 7.35583 10.2143 7.06962 10.2143 6.49643V3.91827Z" fill="#00A3FF"/>
<path id="Vector_3" d="M7.61162 8.27646V4.94962L9.0971 0.0510254H7.84487L7.01016 3.27995L6.1382 0.0510254H4.83691C5.06609 0.738799 5.33201 1.50415 5.63489 2.34661C6.0195 3.4765 6.26898 4.34384 6.38381 4.94965V8.27626H7.61158V8.27646H7.61162Z" fill="#00A3FF"/>
<path id="Vector_4" d="M19.0719 10.204C18.7076 9.87691 18.2882 9.68471 17.8136 9.62696C16.3076 9.46355 14.0365 9.38135 11.0002 9.38135C7.96375 9.38135 5.69669 9.46331 4.19889 9.62696C3.71589 9.68451 3.29454 9.87691 2.93434 10.204C2.57414 10.532 2.33679 10.9367 2.2222 11.4197C2.00921 12.3692 1.90308 13.801 1.90308 15.7166C1.90308 17.6645 2.00945 19.0966 2.2222 20.0135C2.32853 20.496 2.56375 20.9011 2.92806 21.2287C3.29213 21.5563 3.71154 21.7444 4.18629 21.7937C5.69211 21.9653 7.96323 22.0511 11 22.0511C14.0365 22.0511 16.3076 21.9653 17.8134 21.7937C18.288 21.7444 18.7054 21.5563 19.0656 21.2287C19.4256 20.9011 19.663 20.496 19.7778 20.0135C19.9905 19.0639 20.0969 17.6316 20.0969 15.7166C20.0969 13.7686 19.9905 12.3366 19.7778 11.4197C19.6712 10.9367 19.436 10.532 19.0719 10.204ZM7.09609 12.6593H5.78248V19.6449H4.5549V12.6593H3.26598V11.5055H7.09637V12.6593H7.09609ZM10.4106 19.6449H9.31792V18.9815C8.876 19.4807 8.45856 19.7307 8.0657 19.7307C7.68907 19.7307 7.45191 19.5791 7.35355 19.2765C7.28802 19.0799 7.2554 18.7817 7.2554 18.3801V13.5799H8.34808V18.0489C8.34808 18.3107 8.35219 18.4541 8.36041 18.4785C8.38505 18.6501 8.47089 18.736 8.61834 18.736C8.8393 18.736 9.07259 18.5643 9.3182 18.2203V13.5799H10.4108V19.6449H10.4106ZM14.5847 17.828C14.5847 18.4255 14.548 18.8345 14.4742 19.0555C14.335 19.5054 14.0446 19.7307 13.6025 19.7307C13.2097 19.7307 12.8292 19.5054 12.4608 19.0555V19.6449H11.3681V11.5055H12.4608V14.1695C12.8125 13.7278 13.1933 13.5066 13.6025 13.5066C14.0444 13.5066 14.335 13.7358 14.4742 14.1939C14.548 14.4068 14.5847 14.812 14.5847 15.4096V17.828ZM18.7342 16.8213H16.5368V17.8894C16.5368 18.4543 16.7248 18.7362 17.1015 18.7362C17.3715 18.7362 17.5351 18.5889 17.5924 18.2945C17.6086 18.2125 17.6171 17.9631 17.6171 17.5454H18.7342V17.7051C18.7342 18.1064 18.726 18.3433 18.7095 18.4173C18.6849 18.6385 18.599 18.859 18.4518 19.0801C18.1572 19.5136 17.7153 19.7309 17.1259 19.7309C16.5612 19.7309 16.1191 19.5223 15.8 19.1046C15.5626 18.8019 15.4439 18.3276 15.4439 17.6807V15.5568C15.4439 14.9104 15.5585 14.4356 15.7877 14.1324C16.1067 13.7152 16.5445 13.5066 17.1013 13.5066C17.6495 13.5066 18.0834 13.7152 18.4025 14.1324C18.6235 14.4356 18.734 14.9104 18.734 15.5568V16.8213H18.7342Z" fill="#00A3FF"/>
<path id="Vector_5" d="M17.0892 14.5005C16.7208 14.5005 16.5369 14.779 16.5369 15.3355V15.9005H17.6419V15.3355C17.6416 14.7792 17.4576 14.5005 17.0892 14.5005Z" fill="#00A3FF"/>
<path id="Vector_6" d="M13.0135 14.5005C12.8252 14.5005 12.641 14.5907 12.4612 14.771V18.466C12.6411 18.6463 12.8253 18.736 13.0135 18.736C13.3326 18.736 13.4924 18.4621 13.4924 17.9136V15.3234C13.4922 14.7749 13.3326 14.5005 13.0135 14.5005Z" fill="#00A3FF"/>
</g>
</g>
</g>
<defs>
<clipPath id="clip0_4_2093">
<rect width="22" height="22" fill="white" transform="translate(0 0.0510254)"/>
</clipPath>
</defs>
</svg>
