<svg width="22" height="23" viewBox="0 0 22 23" fill="none" xmlns="http://www.w3.org/2000/svg">
<g id="001-twitter 1" clip-path="url(#clip0_4_2078)">
<g id="Group">
<g id="Group_2">
<path id="Vector" d="M22 4.22965C21.1819 4.58853 20.3101 4.8264 19.4012 4.9419C20.3363 4.38365 21.0499 3.5064 21.3854 2.44903C20.5136 2.96878 19.5511 3.3359 18.5254 3.54078C17.6976 2.6594 16.5179 2.11353 15.2309 2.11353C12.7339 2.11353 10.7236 4.14028 10.7236 6.6249C10.7236 6.9824 10.7539 7.32615 10.8281 7.6534C7.0785 7.47052 3.76063 5.6734 1.53175 2.93578C1.14262 3.6109 0.914375 4.38365 0.914375 5.21552C0.914375 6.77752 1.71875 8.16215 2.91775 8.96377C2.19313 8.95002 1.48225 8.73965 0.88 8.40827C0.88 8.42202 0.88 8.4399 0.88 8.45777C0.88 10.6495 2.44337 12.47 4.4935 12.8894C4.12637 12.9898 3.72625 13.0379 3.311 13.0379C3.02225 13.0379 2.73075 13.0214 2.45712 12.9609C3.0415 14.747 4.69975 16.0601 6.6715 16.1028C5.137 17.3031 3.18863 18.0264 1.07938 18.0264C0.7095 18.0264 0.35475 18.0099 0 17.9645C1.99787 19.2529 4.36562 19.9885 6.919 19.9885C15.2185 19.9885 19.756 13.1135 19.756 7.15427C19.756 6.9549 19.7491 6.7624 19.7395 6.57127C20.6346 5.93602 21.3867 5.14265 22 4.22965Z" fill="#00A3FF"/>
</g>
</g>
</g>
<defs>
<clipPath id="clip0_4_2078">
<rect width="22" height="22" fill="white" transform="translate(0 0.0510254)"/>
</clipPath>
</defs>
</svg>
