<svg width="24" height="24" viewBox="0 0 24 24" fill="none" xmlns="http://www.w3.org/2000/svg">
<g clip-path="url(#clip0_4_2231)">
<path d="M23.2497 10.2531L23.1649 2.99123C23.1607 2.63597 22.9056 2.33194 22.5569 2.26355C22.2225 2.19802 17.6456 2.52975 12.3141 0.0690469C12.1146 -0.0230156 11.8849 -0.0230156 11.6855 0.0690469C8.50583 1.53656 5.14846 2.24953 1.49976 2.24953C1.08557 2.24953 0.749756 2.58534 0.749756 2.99953V10.2619C0.749756 16.8524 5.35438 22.593 11.8426 23.9834C11.946 24.0055 12.0533 24.0056 12.1569 23.9834C18.7601 22.5683 23.2999 16.6704 23.2497 10.2531ZM11.9998 22.4819C6.34049 21.192 2.24976 16.0788 2.24976 10.2619V3.74461C5.59218 3.67767 8.94571 2.93128 11.9998 1.57336C15.0308 2.92102 18.3562 3.66637 21.6735 3.74297L21.7498 10.2661C21.7477 16.0814 17.6576 21.1924 11.9998 22.4819Z" fill="#00A3FF"/>
<path d="M15.7498 9.75H14.9998V8.625C14.9998 6.97078 13.654 5.625 11.9998 5.625C10.3455 5.625 8.99976 6.97078 8.99976 8.625V9.75H8.24976C7.83557 9.75 7.49976 10.0858 7.49976 10.5V16.5C7.49976 16.9142 7.83557 17.25 8.24976 17.25H15.7498C16.1639 17.25 16.4998 16.9142 16.4998 16.5V10.5C16.4998 10.0858 16.164 9.75 15.7498 9.75ZM10.4998 8.625C10.4998 7.79789 11.1726 7.125 11.9998 7.125C12.8269 7.125 13.4998 7.79789 13.4998 8.625V9.75H10.4998V8.625ZM14.9998 15.75H8.99976V11.25H14.9998V15.75Z" fill="#00A3FF"/>
<path d="M11.9998 12.375C11.5856 12.375 11.2498 12.7108 11.2498 13.125V13.875C11.2498 14.2892 11.5856 14.625 11.9998 14.625C12.4139 14.625 12.7498 14.2892 12.7498 13.875V13.125C12.7498 12.7108 12.414 12.375 11.9998 12.375Z" fill="#00A3FF"/>
</g>
<defs>
<clipPath id="clip0_4_2231">
<rect width="24" height="24" fill="white"/>
</clipPath>
</defs>
</svg>
